<svg width="224" height="48" viewBox="0 0 224 48" fill="none" xmlns="http://www.w3.org/2000/svg">
<path d="M81.6897 17.2362C82.2435 17.789 82.5205 18.5017 82.5205 19.3744C82.5205 20.1017 82.3601 20.8435 82.0395 21.5999L70.8454 47.7817L70.3644 47.9999L59.3452 17.2362H63.062L72.2009 43.069L81.5147 21.5999C81.8354 20.8726 81.9957 20.1162 81.9957 19.3308C81.9957 18.5453 81.7771 17.9344 81.3398 17.4981L81.6897 17.2362Z" fill="#101623"/>
<path d="M104.29 17.2362V17.6726H90.5157V30.7635H103.284V31.1999H90.5157V47.3453H105.252V47.7817H86.8863V17.2362H104.29Z" fill="#101623"/>
<path d="M110.21 47.7817H109.641L113.446 17.2362H114.889L124.071 45.469L133.21 17.2362H134.653L138.457 47.7817H134.828L131.811 23.3453L123.896 47.7817H121.142L113.14 23.6508L110.21 47.7817Z" fill="#101623"/>
<path d="M142.848 33.2508C142.848 27.9562 144.131 23.9417 146.696 21.2072C149.291 18.4435 152.614 17.0617 156.666 17.0617C160.718 17.0617 163.939 18.2544 166.33 20.6399C168.749 23.0253 169.959 26.8362 169.959 32.0726C169.959 37.309 168.676 41.2653 166.111 43.9417C163.546 46.6181 160.12 47.9562 155.835 47.9562C152.133 47.9562 149.101 46.8944 146.74 44.7708C145.516 43.6653 144.554 42.1381 143.854 40.189C143.183 38.2108 142.848 35.8981 142.848 33.2508ZM156.535 17.4981C153.59 17.4981 151.171 18.8072 149.276 21.4253C147.41 24.0435 146.478 27.8835 146.478 32.9453C146.478 38.0072 147.367 41.7017 149.145 44.029C150.923 46.3562 153.284 47.5199 156.229 47.5199C159.202 47.5199 161.622 46.2108 163.487 43.5926C165.382 40.9453 166.33 37.1199 166.33 32.1162C166.33 27.0835 165.426 23.389 163.618 21.0326C161.84 18.6762 159.479 17.4981 156.535 17.4981Z" fill="#101623"/>
<path d="M174.767 17.5853C178.149 17.3526 181.137 17.2362 183.731 17.2362C190.931 17.2362 194.532 19.6362 194.532 24.4362C194.532 26.4726 194.036 28.2908 193.045 29.8908C192.054 31.4908 190.348 32.5526 187.929 33.0762L196.674 47.7817H192.608L184.037 33.3381H178.396V47.7817H174.767V17.5853ZM183.731 17.6726C182.04 17.6726 180.262 17.7744 178.396 17.9781V32.9017H184.868C188.978 32.7272 191.034 29.9344 191.034 24.5235C191.034 22.3126 190.421 20.6253 189.197 19.4617C187.973 18.269 186.151 17.6726 183.731 17.6726Z" fill="#101623"/>
<path d="M199.805 47.7817H199.28L212.354 17.2362L212.835 17.0181L223.854 47.7817H220.138L216.727 38.1817H203.959L199.805 47.7817ZM210.999 21.949L204.133 37.7453H216.596L210.999 21.949Z" fill="#101623"/>
<path d="M26.1818 48C26.1818 33.5402 14.4598 21.8182 3.64113e-06 21.8182L0 48L26.1818 48Z" fill="#6E43FB"/>
<path d="M26.1818 48C26.1818 33.5402 37.9038 21.8182 52.3636 21.8182L52.3637 48L26.1818 48Z" fill="#6E43FB"/>
<path d="M39.2727 13.0909C39.2727 20.3208 33.4117 26.1818 26.1818 26.1818C18.9519 26.1818 13.0909 20.3208 13.0909 13.0909C13.0909 5.861 18.9519 0 26.1818 0C33.4117 0 39.2727 5.861 39.2727 13.0909Z" fill="#6E43FB"/>
</svg>
